<svg width="35" height="35" viewBox="0 0 35 35" fill="none" xmlns="http://www.w3.org/2000/svg">
<path d="M25.75 8.07142L9.25 15.1429" stroke="#1D1D1D" stroke-linecap="round"/>
<path d="M25.75 26.9286L9.25 19.8571" stroke="#1D1D1D" stroke-linecap="round"/>
<path fill-rule="evenodd" clip-rule="evenodd" d="M5.125 22.2143C7.40317 22.2143 9.25 20.1036 9.25 17.5C9.25 14.8964 7.40317 12.7857 5.125 12.7857C2.84683 12.7857 1 14.8964 1 17.5C1 20.1036 2.84683 22.2143 5.125 22.2143Z" stroke="#1D1D1D"/>
<path fill-rule="evenodd" clip-rule="evenodd" d="M29.875 10.4286C32.1532 10.4286 34 8.31791 34 5.71429C34 3.11066 32.1532 1 29.875 1C27.5968 1 25.75 3.11066 25.75 5.71429C25.75 8.31791 27.5968 10.4286 29.875 10.4286Z" stroke="#1D1D1D"/>
<path fill-rule="evenodd" clip-rule="evenodd" d="M29.875 34C32.1532 34 34 31.8894 34 29.2857C34 26.6821 32.1532 24.5714 29.875 24.5714C27.5968 24.5714 25.75 26.6821 25.75 29.2857C25.75 31.8894 27.5968 34 29.875 34Z" stroke="#1D1D1D"/>
</svg>
